# xmcd CD database file
#
# Track frame offsets:
#	150
#	21365
#	40812
#
# Disc length: 825 seconds
#
# Revision: 0
# Processed by: cddbd v1.5PL3 Copyright (c) Steve Scherf et al.
# Submitted via: CDex 1.51
#
DISCID=1d033703
DTITLE=LINDBERG - Sugar Free
DYEAR=1900
DGENRE=J ポップ
TTITLE0=Sugar Free
TTITLE1=懲りない恋
TTITLE2=Sugar Free(カラオケ)
EXTD=
EXTT0=
EXTT1=
EXTT2=
PLAYORDER=
